<?xml version="1.0" standalone="no"?>
<!DOCTYPE svg PUBLIC "-//W3C//DTD SVG 20010904//EN"
 "http://www.w3.org/TR/2001/REC-SVG-20010904/DTD/svg10.dtd">
<svg version="1.0" xmlns="http://www.w3.org/2000/svg"
 width="235.000000pt" height="217.087619pt" viewBox="0 0 235.000000 217.087619"
 preserveAspectRatio="xMidYMid meet">
<metadata>
Created by potrace 1.16, written by Peter Selinger 2001-2019
</metadata>
<g transform="translate(0.000000,217.087619) scale(0.100000,-0.100000)"
fill="#000000" stroke="none">
<path d="M0 1885 c0 -157 2 -285 5 -285 3 0 10 20 16 45 6 25 15 45 19 45 12
0 30 49 24 65 -4 8 -1 15 6 15 6 0 9 3 6 8 -2 4 2 16 10 27 8 10 14 13 14 6 0
-7 5 -9 11 -5 6 3 9 15 6 25 -3 11 -2 19 2 19 3 0 15 17 26 38 10 20 21 39 22
41 2 3 10 -4 19 -15 8 -10 13 -14 10 -8 -5 11 98 114 114 114 5 0 11 6 13 13
4 9 8 8 17 -3 9 -11 13 -12 17 -2 2 6 13 12 23 12 10 0 21 4 25 10 3 5 12 7
20 3 8 -3 15 -1 15 5 0 5 6 9 13 9 19 -2 90 36 105 56 7 9 18 15 23 11 5 -3
20 1 32 9 12 7 35 12 50 10 18 -2 26 0 22 7 -4 6 -120 10 -346 10 l-339 0 0
-285z"/>
<path d="M710 2055 l0 -115 -157 0 c-153 0 -160 -1 -208 -28 -80 -43 -95 -83
-95 -254 l0 -137 -125 2 -125 3 0 -73 0 -73 125 0 125 0 0 -50 0 -50 -125 0
-125 0 0 -75 0 -75 126 0 125 0 -3 -52 -3 -53 -122 -3 -123 -3 0 -69 0 -70
125 0 125 0 0 -50 0 -50 -125 0 -125 0 0 -77 0 -76 125 6 125 7 0 -139 c0
-155 8 -187 62 -237 49 -46 85 -54 249 -54 l149 0 0 -105 0 -105 70 0 70 0 0
104 0 104 55 4 55 3 0 -107 0 -108 75 0 75 0 0 105 0 105 55 0 55 0 0 -105 0
-105 70 0 70 0 0 105 0 105 50 0 50 0 0 -105 0 -105 74 0 74 0 6 31 c3 17 6
65 6 105 l0 74 141 0 c164 0 213 10 258 52 53 49 61 81 61 232 0 108 3 135 15
139 8 4 68 3 135 0 l120 -6 0 76 0 77 -135 0 -135 0 0 50 0 50 135 0 135 0 0
70 0 69 -132 3 -133 3 -3 53 -3 52 135 0 136 0 0 75 0 75 -135 0 -135 0 0 50
0 50 135 0 135 0 0 77 0 76 -134 -7 -135 -6 -3 148 c-3 144 -4 150 -31 191
-46 69 -83 81 -269 81 -181 0 -160 -16 -158 120 2 109 1 110 -81 110 l-69 0 0
-115 0 -115 -55 0 -55 0 0 115 0 116 -71 -3 -72 -3 2 -112 2 -113 -55 0 -55 0
-3 113 -3 112 -72 3 -73 3 0 -116 0 -115 -55 0 -55 0 0 115 0 115 -70 0 -70 0
0 -115z m122 8 c1 -49 2 -99 3 -113 1 -24 4 -25 73 -28 l72 -3 0 116 0 115 55
0 55 0 0 -115 0 -115 75 0 75 0 0 115 0 115 50 0 50 0 0 -115 0 -115 75 0 75
0 0 115 0 115 55 0 55 0 0 -115 0 -115 163 0 c149 0 166 -2 207 -22 31 -16 51
-36 67 -67 21 -40 23 -58 23 -187 l0 -143 135 2 135 2 0 -52 0 -53 -135 0
-135 0 0 -70 0 -70 135 0 135 0 0 -55 0 -55 -135 0 -135 0 0 -72 0 -73 135 1
135 0 0 -53 0 -53 -135 0 -135 0 0 -70 0 -70 135 0 135 0 0 -55 0 -55 -134 0
-134 0 -4 -157 c-3 -177 -9 -193 -77 -235 -33 -21 -50 -23 -208 -26 l-173 -4
0 -104 0 -104 -60 0 -60 0 0 105 0 105 -70 0 -70 0 0 -105 0 -105 -56 0 -55 0
3 105 3 105 -72 0 -73 0 0 -105 0 -105 -55 0 -55 0 0 105 0 105 -76 0 -75 0 3
-105 3 -105 -52 0 -53 0 0 105 0 105 -163 0 c-151 0 -167 2 -208 23 -31 16
-51 36 -66 67 -21 40 -23 59 -23 187 l0 143 -130 0 -130 0 0 55 0 55 130 0
130 0 0 70 0 70 -130 0 -130 0 0 54 0 53 87 1 c49 0 107 1 131 1 l42 1 0 70 0
70 -130 0 -130 0 0 55 0 55 130 0 130 0 0 70 0 70 -130 0 -130 0 0 50 0 50
129 0 130 0 3 159 c3 182 9 198 88 239 41 20 58 22 207 22 l163 0 0 115 0 115
50 0 50 0 2 -87z"/>
<path d="M454 1781 c-17 -11 -36 -34 -43 -52 -14 -42 -16 -1247 -1 -1300 6
-20 20 -45 31 -55 20 -18 48 -19 726 -19 l705 0 29 33 29 32 0 651 c0 716 2
696 -61 718 -22 8 -239 11 -708 11 -647 0 -677 -1 -707 -19z m915 -106 c155
-37 319 -160 394 -296 112 -201 101 -480 -27 -669 -76 -113 -200 -210 -319
-249 -129 -43 -294 -49 -432 -14 -173 43 -329 168 -403 324 -49 101 -62 162
-62 278 0 298 190 547 474 621 90 24 283 26 375 5z"/>
<path d="M1462 1538 c-19 -19 -15 -25 46 -67 59 -40 114 -105 151 -178 21 -42
51 -57 66 -33 10 15 -50 130 -95 182 -39 46 -123 108 -145 108 -6 0 -16 -5
-23 -12z"/>
<path d="M1387 1453 c-16 -15 -4 -32 46 -65 35 -23 69 -59 98 -102 31 -46 50
-65 66 -66 29 0 33 19 12 60 -52 103 -187 209 -222 173z"/>
<path d="M1325 1360 c-4 -6 25 -42 64 -80 39 -38 71 -73 71 -79 0 -19 30 -39
50 -34 25 7 25 14 1 62 -42 82 -164 167 -186 131z"/>
<path d="M1093 1300 c-117 -27 -201 -134 -203 -254 0 -79 19 -126 76 -183 87
-88 209 -106 322 -49 95 48 152 154 138 259 -21 157 -178 264 -333 227z m126
-196 c40 -33 42 -75 5 -109 -31 -29 -53 -31 -93 -10 -48 24 -56 81 -16 120 31
32 66 32 104 -1z"/>
<path d="M1694 2145 c15 -14 31 -25 35 -25 5 0 11 -7 15 -15 3 -8 11 -15 18
-15 7 0 26 -7 41 -15 19 -10 26 -10 22 -2 -4 7 0 4 9 -7 8 -10 22 -16 30 -13
8 3 20 -1 26 -9 7 -8 22 -14 34 -14 11 0 32 -9 46 -20 14 -11 29 -20 33 -20
11 0 71 -43 80 -57 4 -7 14 -10 22 -7 8 4 15 2 15 -4 0 -6 11 -24 25 -41 14
-16 28 -39 30 -51 2 -11 13 -33 23 -48 11 -15 21 -31 22 -37 1 -5 9 -22 18
-37 11 -19 18 -24 24 -15 5 8 8 7 8 -5 0 -21 49 -95 68 -102 9 -4 12 57 12
289 l0 295 -341 0 -342 0 27 -25z"/>
<path d="M0 271 l0 -271 335 0 c209 0 335 4 335 10 0 5 -6 7 -12 5 -7 -3 -24
5 -38 18 -14 13 -30 22 -36 20 -6 -2 -30 11 -55 29 -58 44 -95 62 -108 54 -6
-4 -11 -2 -11 3 0 6 -9 11 -21 11 -11 0 -34 9 -50 21 -16 11 -29 17 -29 12 -1
-4 -9 3 -20 16 -11 12 -17 27 -14 32 3 5 1 9 -5 9 -6 0 -28 18 -51 41 -22 22
-40 35 -40 28 0 -7 -18 13 -41 44 -36 51 -62 77 -43 45 5 -9 4 -10 -3 -3 -6 6
-21 30 -34 55 -13 25 -30 49 -37 53 -7 5 -10 12 -7 17 3 5 1 11 -5 15 -7 4
-10 -84 -10 -264z"/>
<path d="M2340 525 c0 -8 -4 -15 -9 -15 -10 0 -27 -27 -52 -80 -6 -14 -13 -20
-16 -13 -5 14 -63 -44 -63 -63 0 -8 -5 -14 -12 -14 -6 0 -9 -3 -5 -6 3 -4 1
-12 -6 -20 -29 -33 -37 -44 -37 -54 0 -5 -5 -10 -10 -10 -6 0 -15 -10 -20 -22
-9 -23 -9 -23 -10 2 -1 14 -4 19 -7 12 -2 -6 -10 -9 -15 -6 -6 4 -8 3 -5 -3 8
-13 -27 -44 -112 -98 -35 -23 -87 -50 -96 -51 -5 0 -23 -7 -40 -14 -16 -7 -34
-14 -40 -15 -5 -2 -32 -14 -60 -29 l-50 -25 338 -1 337 0 0 270 c0 149 -2 270
-5 270 -3 0 -5 -7 -5 -15z"/>
<path d="M680 10 c0 -5 5 -10 11 -10 5 0 7 5 4 10 -3 6 -8 10 -11 10 -2 0 -4
-4 -4 -10z"/>
</g>
</svg>
